<svg xmlns:xlink="http://www.w3.org/1999/xlink" xmlns="http://www.w3.org/2000/svg" width="24" height="24" viewBox="0 0 24 24" fill="none"><g clip-path="url(#clip0_219_1017)" fill="none"><path d="M24 12C24 18.6274 18.6274 24 12 24C5.37258 24 0 18.6274 0 12C0 5.37258 5.37258 0 12 0C18.6274 0 24 5.37258 24 12Z" fill="url(&quot;#paint0_linear_219_1017&quot;)"></path><path d="M22 12C22 17.5228 17.5228 22 12 22C6.47715 22 2 17.5228 2 12C2 6.47715 6.47715 2 12 2C17.5228 2 22 6.47715 22 12Z" fill="url(&quot;#paint1_linear_219_1017&quot;)"></path><path fill-rule="evenodd" clip-rule="evenodd" d="M17.8041 8.05628C17.9682 8.22037 18.0603 8.44289 18.0603 8.67491C18.0603 8.90693 17.9682 9.12946 17.8041 9.29354L11.2457 15.852C11.159 15.9386 11.0561 16.0074 10.9429 16.0543C10.8296 16.1012 10.7082 16.1254 10.5857 16.1254C10.4631 16.1254 10.3417 16.1012 10.2284 16.0543C10.1152 16.0074 10.0123 15.9386 9.92562 15.852L6.66712 12.594C6.58355 12.5133 6.51689 12.4168 6.47103 12.31C6.42517 12.2033 6.40104 12.0884 6.40003 11.9723C6.39902 11.8561 6.42116 11.7409 6.46515 11.6333C6.50915 11.5258 6.57412 11.4281 6.65628 11.3459C6.73843 11.2638 6.83613 11.1988 6.94366 11.1548C7.0512 11.1108 7.16642 11.0887 7.2826 11.0897C7.39878 11.0907 7.5136 11.1148 7.62035 11.1607C7.7271 11.2066 7.82366 11.2732 7.90437 11.3568L10.5854 14.0378L16.5663 8.05628C16.6475 7.97497 16.744 7.91047 16.8502 7.86646C16.9564 7.82246 17.0703 7.7998 17.1852 7.7998C17.3002 7.7998 17.414 7.82246 17.5202 7.86646C17.6264 7.91047 17.7229 7.97497 17.8041 8.05628Z" fill="url(&quot;#paint2_linear_219_1017&quot;)"></path></g><defs><linearGradient id="paint0_linear_219_1017" x1="-5.58011e-08" y1="12" x2="24" y2="12" gradientUnits="userSpaceOnUse"><stop stop-color="#3A9BF5"></stop><stop offset="1" stop-color="#A772FE"></stop></linearGradient><linearGradient id="paint1_linear_219_1017" x1="-1.07288e-07" y1="12" x2="24" y2="12" gradientUnits="userSpaceOnUse"><stop stop-color="#2160E7"></stop><stop offset="1" stop-color="#BD8FFF"></stop></linearGradient><linearGradient id="paint2_linear_219_1017" x1="13.4" y1="10.5998" x2="14.8" y2="11.9998" gradientUnits="userSpaceOnUse"><stop stop-color="#F0F4FF"></stop><stop offset="0.447635" stop-color="white"></stop><stop offset="1" stop-color="#BEC9FF"></stop></linearGradient><clipPath id="clip0_219_1017"><rect width="24" height="24" fill="white"></rect></clipPath><linearGradient id="paint0_linear_219_1017" x1="-5.58011e-08" y1="12" x2="24" y2="12" gradientUnits="userSpaceOnUse"><stop stop-color="#3A9BF5"></stop><stop offset="1" stop-color="#A772FE"></stop></linearGradient><linearGradient id="paint1_linear_219_1017" x1="-1.07288e-07" y1="12" x2="24" y2="12" gradientUnits="userSpaceOnUse"><stop stop-color="#2160E7"></stop><stop offset="1" stop-color="#BD8FFF"></stop></linearGradient><linearGradient id="paint2_linear_219_1017" x1="13.4" y1="10.5998" x2="14.8" y2="11.9998" gradientUnits="userSpaceOnUse"><stop stop-color="#F0F4FF"></stop><stop offset="0.447635" stop-color="white"></stop><stop offset="1" stop-color="#BEC9FF"></stop></linearGradient></defs></svg>